<?xml version="1.0" standalone="no"?>
<!DOCTYPE svg PUBLIC "-//W3C//DTD SVG 20010904//EN"
 "http://www.w3.org/TR/2001/REC-SVG-20010904/DTD/svg10.dtd">
<svg version="1.0" xmlns="http://www.w3.org/2000/svg"
 width="363.000000pt" height="363.000000pt" viewBox="0 0 363.000000 363.000000"
 preserveAspectRatio="xMidYMid meet">
<metadata>
Created by potrace 1.14, written by Peter Selinger 2001-2017
</metadata>
<g transform="translate(0.000000,363.000000) scale(0.100000,-0.100000)"
fill="#000000" stroke="none">
<path d="M2169 2652 c-109 -2 -129 -5 -144 -21 -13 -16 -37 -90 -60 -191 -2
-8 -31 -116 -64 -240 -34 -124 -75 -279 -93 -345 -17 -66 -33 -122 -35 -124
-10 -13 -26 29 -69 174 -25 88 -50 174 -54 190 -54 202 -153 522 -166 536 -16
17 -34 19 -206 19 -110 0 -197 -4 -208 -10 -17 -9 -54 -108 -75 -197 -3 -10
-18 -65 -34 -123 -16 -58 -58 -210 -94 -338 -64 -227 -72 -251 -82 -241 -2 3
-61 203 -130 445 -80 277 -132 444 -142 452 -12 9 -75 12 -233 12 -253 0 -265
-3 -258 -74 3 -22 41 -160 86 -306 44 -146 92 -303 106 -350 13 -47 57 -191
96 -320 40 -129 93 -307 120 -395 58 -197 64 -211 89 -224 12 -7 96 -11 214
-11 188 0 194 1 214 23 14 14 61 161 142 437 67 228 124 417 127 419 2 3 8 0
13 -5 8 -9 241 -792 241 -811 0 -5 11 -22 25 -37 l24 -26 190 0 c239 0 224
-10 281 185 59 198 129 433 201 672 24 78 44 141 46 139 2 -2 71 -203 153
-447 190 -561 177 -528 207 -540 36 -13 426 -12 457 2 30 14 16 -23 191 499
80 239 199 591 263 782 94 279 115 351 106 365 -10 16 -32 18 -205 20 -141 2
-198 -1 -210 -10 -12 -10 -171 -538 -244 -812 -38 -144 -63 -219 -72 -222 -6
-2 -15 13 -20 34 -6 21 -45 151 -87 288 -43 138 -107 347 -142 465 -36 118
-72 225 -80 237 -13 20 -23 22 -136 25 -68 2 -180 2 -249 0z"/>
</g>
</svg>
